<svg version="1.1" id="Layer_1" xmlns="http://www.w3.org/2000/svg" xmlns:xlink="http://www.w3.org/1999/xlink" x="0px" y="0px"
	 width="100%" viewBox="0 0 451 450" enable-background="new 0 0 451 450" xml:space="preserve">
<path fill="#FFFFFE" opacity="1.000000" stroke="none" 
	d="
M284.000000,451.000000 
	C189.359451,451.000000 95.218887,451.000000 1.039166,451.000000 
	C1.039166,301.067719 1.039166,151.135406 1.039166,1.101554 
	C151.223892,1.101554 301.447876,1.101554 451.835938,1.101554 
	C451.835938,150.999847 451.835938,300.999908 451.835938,451.000000 
	C396.135376,451.000000 340.317688,451.000000 284.000000,451.000000 
M262.406219,113.557915 
	C262.570374,113.009575 262.734558,112.461227 263.380280,111.294029 
	C263.480316,110.523445 263.580353,109.752869 263.993439,108.221672 
	C264.496948,103.958542 265.000458,99.695419 265.503967,95.432289 
	C264.891418,95.363014 264.278870,95.293747 263.666351,95.224472 
	C262.785400,98.813454 261.904449,102.402435 260.620819,106.638107 
	C260.085327,108.327805 259.601685,110.036011 259.006348,111.704361 
	C252.658066,129.494568 246.292084,147.278427 239.248688,164.984894 
	C238.042374,163.874863 236.658173,162.904694 235.657959,161.632599 
	C227.847473,151.699234 220.130325,141.692505 212.325928,131.754318 
	C211.376938,130.545868 210.080917,129.609940 208.945709,128.547714 
	C208.556381,128.818924 208.167068,129.090134 207.777740,129.361343 
	C208.154510,130.877594 208.457809,132.416611 208.919205,133.906662 
	C214.913940,153.266342 220.931107,172.619064 226.404388,192.379745 
	C216.626984,209.750687 205.608612,226.148514 189.777191,238.726898 
	C168.216888,255.856979 143.999405,257.458344 121.432022,241.804031 
	C111.699562,235.052902 102.751488,226.669250 94.969925,217.705246 
	C74.791267,194.460388 61.236385,167.117706 48.987301,139.115341 
	C45.202950,130.464020 41.487427,121.782608 37.740395,113.114960 
	C36.545498,114.360893 36.024570,115.605232 36.243332,116.702042 
	C40.164612,136.362427 43.729168,156.108597 48.262131,175.629257 
	C57.055649,213.497498 68.653084,250.450241 86.964615,284.967499 
	C96.304283,302.572754 107.171989,319.085236 122.653641,332.058990 
	C144.966415,350.757324 168.794189,349.955872 189.810455,329.825562 
	C201.532272,318.597900 209.815277,304.976044 217.029633,290.622467 
	C227.387573,270.014374 234.448532,248.174728 241.624222,226.457077 
	C249.399811,240.218002 256.587738,254.354752 265.090393,267.650726 
	C277.468445,287.006714 292.232117,304.380432 312.278229,316.442108 
	C335.555756,330.448212 358.208344,327.296814 374.534973,307.520233 
	C378.532410,302.678162 382.032043,297.263184 384.882751,291.664612 
	C396.714233,268.428406 401.234863,243.217438 403.974182,217.609406 
	C407.566040,184.031815 406.796143,150.400131 404.739838,116.777588 
	C404.095367,106.240089 402.958405,95.732712 401.941742,83.997620 
	C398.065552,97.924393 394.894958,110.681946 390.948761,123.194893 
	C383.894226,145.563766 374.572113,166.841934 359.106689,184.928467 
	C339.562042,207.785599 314.851562,213.816681 287.197845,202.289246 
	C273.950531,196.767090 262.682526,188.268448 252.539658,177.873230 
	C253.544647,172.509583 254.752655,167.174667 255.516418,161.776886 
	C257.770813,145.844620 259.849457,129.887497 262.406219,113.557915 
M141.285339,124.989456 
	C123.831528,124.803833 111.180748,135.679474 108.341675,153.310516 
	C104.726654,175.760300 125.205154,195.731476 146.243027,190.272919 
	C161.506180,186.312698 171.002289,172.223053 170.053040,154.945389 
	C169.215363,139.698166 157.607590,127.242294 141.285339,124.989456 
M347.260498,139.609680 
	C347.805298,138.397049 348.444092,137.217239 348.880920,135.966888 
	C356.381256,114.498589 341.730103,91.421745 320.377808,91.041824 
	C305.518188,90.777435 292.508728,101.940529 289.331757,117.681664 
	C286.123383,133.578461 295.174377,150.332443 309.885925,155.728760 
	C323.896881,160.868103 338.471008,154.801193 347.260498,139.609680 
z"/>
<path fill="#AFCB0A" opacity="1.000000" stroke="none" 
	d="
M226.942627,191.973526 
	C220.931107,172.619064 214.913940,153.266342 208.919205,133.906662 
	C208.457809,132.416611 208.154510,130.877594 207.777740,129.361343 
	C208.167068,129.090134 208.556381,128.818924 208.945709,128.547714 
	C210.080917,129.609940 211.376938,130.545868 212.325928,131.754318 
	C220.130325,141.692505 227.847473,151.699234 235.657959,161.632599 
	C236.658173,162.904694 238.042374,163.874863 239.637146,165.361847 
	C244.088486,170.030350 248.151367,174.321884 252.214233,178.613419 
	C262.682526,188.268448 273.950531,196.767090 287.197845,202.289246 
	C314.851562,213.816681 339.562042,207.785599 359.106689,184.928467 
	C374.572113,166.841934 383.894226,145.563766 390.948761,123.194893 
	C394.894958,110.681946 398.065552,97.924393 401.941742,83.997620 
	C402.958405,95.732712 404.095367,106.240089 404.739838,116.777588 
	C406.796143,150.400131 407.566040,184.031815 403.974182,217.609406 
	C401.234863,243.217438 396.714233,268.428406 384.882751,291.664612 
	C382.032043,297.263184 378.532410,302.678162 374.534973,307.520233 
	C358.208344,327.296814 335.555756,330.448212 312.278229,316.442108 
	C292.232117,304.380432 277.468445,287.006714 265.090393,267.650726 
	C256.587738,254.354752 249.399811,240.218002 241.313629,225.916504 
	C236.316223,214.241791 231.629425,203.107666 226.942627,191.973526 
z"/>
<path fill="#72B129" opacity="1.000000" stroke="none" 
	d="
M226.673508,192.176636 
	C231.629425,203.107666 236.316223,214.241791 241.013000,225.766022 
	C234.448532,248.174728 227.387573,270.014374 217.029633,290.622467 
	C209.815277,304.976044 201.532272,318.597900 189.810455,329.825562 
	C168.794189,349.955872 144.966415,350.757324 122.653641,332.058990 
	C107.171989,319.085236 96.304283,302.572754 86.964615,284.967499 
	C68.653084,250.450241 57.055649,213.497498 48.262131,175.629257 
	C43.729168,156.108597 40.164612,136.362427 36.243332,116.702042 
	C36.024570,115.605232 36.545498,114.360893 37.740395,113.114960 
	C41.487427,121.782608 45.202950,130.464020 48.987301,139.115341 
	C61.236385,167.117706 74.791267,194.460388 94.969925,217.705246 
	C102.751488,226.669250 111.699562,235.052902 121.432022,241.804031 
	C143.999405,257.458344 168.216888,255.856979 189.777191,238.726898 
	C205.608612,226.148514 216.626984,209.750687 226.673508,192.176636 
z"/>
<path fill="#F88144" opacity="1.000000" stroke="none" 
	d="
M141.733215,125.013245 
	C157.607590,127.242294 169.215363,139.698166 170.053040,154.945389 
	C171.002289,172.223053 161.506180,186.312698 146.243027,190.272919 
	C125.205154,195.731476 104.726654,175.760300 108.341675,153.310516 
	C111.180748,135.679474 123.831528,124.803833 141.733215,125.013245 
z"/>
<path fill="#F88144" opacity="1.000000" stroke="none" 
	d="
M347.109009,139.953171 
	C338.471008,154.801193 323.896881,160.868103 309.885925,155.728760 
	C295.174377,150.332443 286.123383,133.578461 289.331757,117.681664 
	C292.508728,101.940529 305.518188,90.777435 320.377808,91.041824 
	C341.730103,91.421745 356.381256,114.498589 348.880920,135.966888 
	C348.444092,137.217239 347.805298,138.397049 347.109009,139.953171 
z"/>
<path fill="#76B130" opacity="1.000000" stroke="none" 
	d="
M252.376953,178.243317 
	C248.151367,174.321884 244.088486,170.030350 239.978287,165.401428 
	C246.292084,147.278427 252.658066,129.494568 259.006348,111.704361 
	C259.601685,110.036011 260.085327,108.327805 261.092712,106.209656 
	C262.269836,106.848228 262.975098,107.915253 263.680359,108.982285 
	C263.580353,109.752869 263.480316,110.523445 262.925598,111.712921 
	C262.312866,112.734566 262.154846,113.337326 261.996857,113.940094 
	C259.849457,129.887497 257.770813,145.844620 255.516418,161.776886 
	C254.752655,167.174667 253.544647,172.509583 252.376953,178.243317 
z"/>
<path fill="#8BB55C" opacity="1.000000" stroke="none" 
	d="
M263.836914,108.601974 
	C262.975098,107.915253 262.269836,106.848228 261.294037,105.886307 
	C261.904449,102.402435 262.785400,98.813454 263.666351,95.224472 
	C264.278870,95.293747 264.891418,95.363014 265.503967,95.432289 
	C265.000458,99.695419 264.496948,103.958542 263.836914,108.601974 
z"/>
<path fill="#8BB55C" opacity="1.000000" stroke="none" 
	d="
M262.201538,113.749008 
	C262.154846,113.337326 262.312866,112.734566 262.684814,112.022346 
	C262.734558,112.461227 262.570374,113.009575 262.201538,113.749008 
z"/>
</svg>